<svg xmlns="http://www.w3.org/2000/svg" xmlns:xlink="http://www.w3.org/1999/xlink" width="493.245" height="349.198" viewBox="0 0 493.245 349.198"><defs><linearGradient id="a" x1="0.5" y1="1" x2="0.5" gradientUnits="objectBoundingBox"><stop offset="0" stop-color="gray" stop-opacity="0.251"/><stop offset="0.54" stop-color="gray" stop-opacity="0.122"/><stop offset="1" stop-color="gray" stop-opacity="0.102"/></linearGradient><linearGradient id="b" x1="0.5" y1="1" x2="0.5" y2="0" xlink:href="#a"/></defs><g transform="translate(0.485)" opacity="0.997"><ellipse cx="43.47" cy="6.982" rx="43.47" ry="6.982" transform="translate(120.211 335.038)" fill="#6c63ff" opacity="0.1"/><ellipse cx="54.244" cy="6.982" rx="54.244" ry="6.982" transform="translate(345.733 335.234)" fill="#6c63ff" opacity="0.1"/><path d="M59.928,396.83H105.2v61.712H63.243c-.112.634-.219,1.271-.335,1.909h42.3V510.22c-.076-.022-.143-.049-.214-.076-1.2-.473-2.382-.972-3.569-1.508l-.758-.344q-1.784-.843-3.569-1.784c-.415-.219-.83-.446-1.24-.678a74.241,74.241,0,0,1-17.791-13.9c-.152-.147-.294-.3-.446-.446-.723-.785-1.432-1.579-2.119-2.391l-.758-.892c-.812-.995-1.6-2.017-2.36-3.051-.112-.152-.219-.3-.335-.446a66.417,66.417,0,0,1-7.673-13.874c-.062-.147-.116-.308-.174-.446q-.919-2.364-1.628-4.773c-.205-.674-.4-1.338-.571-2.039-.062-.205-.116-.406-.165-.607C59.3,453.072,59,442.8,59,432.6v-3.569c0-4.127.049-8.28.12-12.429,0-1.075.045-2.146.067-3.225q.094-4.109.268-8.217c.027-.763.062-1.521.1-2.28a12.907,12.907,0,0,1,.067-1.312C59.732,399.975,59.821,398.4,59.928,396.83Z" transform="translate(-53.968 -245.95)" fill="#6c63ff" opacity="0.1"/><path d="M131.735,203.839H106.9a188.262,188.262,0,0,1,13.21-18.184c3.689-4.532,7.584-8.949,11.626-13.205Z" transform="translate(-80.499 -121.67)" fill="#acbf9e" opacity="0.1"/><path d="M106.534,247.09v64.892H61.4c0-.187.031-.379.045-.567.04-.513.08-1.026.125-1.535.049-.6.1-1.2.161-1.785s.12-1.3.187-1.945.129-1.3.205-1.949.143-1.294.223-1.936.152-1.294.236-1.936c.067-.535.138-1.066.21-1.6.1-.754.21-1.512.326-2.262a2.086,2.086,0,0,1,.049-.335A154.307,154.307,0,0,1,66.49,279.84a120.491,120.491,0,0,1,5.6-16.506,123.91,123.91,0,0,1,8.423-16.221Z" transform="translate(-55.297 -163.012)" fill="#acbf9e" opacity="0.1"/><path d="M186.8,209.5v61.716h96.705V209.5Zm0,63.621v53c.553.116,1.1.227,1.646.321.741.143,1.477.272,2.231.384.143.022.29.045.446.058.294.049.6.089.892.129.745.1,1.486.187,2.231.254.352.036.709.067,1.066.094l.861.067h0c.468.036.932.062,1.392.076.285,0,.571.027.865.036h3.181c.384,0,.767,0,1.147-.036h.027a6.031,6.031,0,0,0,.8-.036,1.9,1.9,0,0,0,.223,0,4.609,4.609,0,0,0,.66-.031h.156l1.494-.116c.491-.045.986-.1,1.486-.156l1.017-.121a88.984,88.984,0,0,0,12.246-2.605c9.021-2.516,17.845-6.036,26.861-8.615,11.657-3.324,24.536-4.956,35.8-.892V273.12Zm96.705-132.328V58.631a124.32,124.32,0,0,0-31.42,3.685c-24.487,6.152-46.459,19.5-65.285,36.537v41.935h4.854v1.9H186.8v64.9h96.705V142.7H211.582v-1.9ZM407.718,113.04a40.056,40.056,0,0,1-17.528-5.095c-10.417-5.666-18.737-14.414-28.034-21.8a128.713,128.713,0,0,0-67.85-26.959v81.6H432.357l.343-.361Zm12.576-2.231,13.335,14.633V106.972a52.906,52.906,0,0,0-13.317,3.819ZM433.628,339.28V273.12H405.215c-.076-.281-.152-.567-.241-.852.085.286.156.571.236.852H294.323v47.846c1.053.781,2.092,1.6,3.123,2.436h0c1.111.892,2.208,1.834,3.31,2.757l1.111.919c.531.446,1.066.892,1.606,1.311q1.606,1.3,3.243,2.57c.54.446,1.093.848,1.642,1.267a223.613,223.613,0,0,0,27.494,17.983q3.226,1.784,6.509,3.484c1.459.745,2.926,1.486,4.4,2.2q3.319,1.619,6.692,3.123h0a245.749,245.749,0,0,0,65.133,18.973q7.49,1.106,15.039,1.74V339.275h.446ZM294.323,142.7v64.9H433.646V142.7Zm0,66.8v61.716H433.646V209.5ZM444.46,106.892v20.6l17.02-18.675q-8.458-1.365-17.02-1.95Zm0,102.63v61.694H579.969V209.5ZM579.474,344.178l.477-71.058H444.46V380.443a242.964,242.964,0,0,0,26.187-.312h.152q6.245-.393,12.433-1.142h.094a228.97,228.97,0,0,0,63.884-17.046M606.1,219.662c-.508-1.2-1.039-2.391-1.579-3.569-1.008-2.231-2.074-4.4-3.172-6.567H590.774v61.689h26.732c-.013-17.47-4.434-35.315-11.394-51.576Zm-15.324,53.481v61.118a87.556,87.556,0,0,0,18.474-24.916,85.653,85.653,0,0,0,8.235-36.211Zm0-81.6V207.6h9.583a174.04,174.04,0,0,0-9.569-16.083ZM498.873,119c-.7-.268-1.41-.54-2.119-.8a193.437,193.437,0,0,0-22.89-6.879L447.82,139.9h0l-.5.531.335.366h92.695a198.257,198.257,0,0,0-41.462-21.82Zm44.193,23.72H446.361l-1.9,1.74v63.135H579.986V177.013A193.073,193.073,0,0,0,543.079,142.7Z" transform="translate(-124.754 -58.624)" fill="#d60303" opacity="0.1"/><path d="M106.534,320.46v32.161H61.4c0-.187.031-.379.045-.567.04-.513.08-1.026.125-1.535.049-.6.1-1.2.161-1.785s.12-1.3.187-1.945.129-1.3.205-1.95.143-1.294.223-1.936.152-1.294.236-1.936c.067-.535.138-1.066.21-1.6.1-.754.21-1.512.326-2.262a2.089,2.089,0,0,1,.049-.335,154.308,154.308,0,0,1,3.324-16.292Z" transform="translate(-55.297 -203.65)" fill="#fff" opacity="0.1"/><path d="M59.928,396.83H105.2v61.712H63.243c-.112.634-.219,1.271-.335,1.909h42.3V510.22c-.076-.022-.143-.049-.214-.076-1.2-.473-2.382-.972-3.569-1.508l-.758-.344q-1.784-.843-3.569-1.784c-.415-.219-.83-.446-1.24-.678a74.241,74.241,0,0,1-17.791-13.9c-.152-.147-.294-.3-.446-.446-.723-.785-1.432-1.579-2.119-2.391l-.758-.892c-.812-.995-1.6-2.017-2.36-3.051-.112-.152-.219-.3-.335-.446a66.417,66.417,0,0,1-7.673-13.874c-.062-.147-.116-.308-.174-.446q-.919-2.364-1.628-4.773c-.205-.674-.4-1.338-.571-2.039-.062-.205-.116-.406-.165-.607C59.3,453.072,59,442.8,59,432.6v-3.569c0-4.127.049-8.28.12-12.429,0-1.075.045-2.146.067-3.225q.094-4.109.268-8.217c.027-.763.062-1.521.1-2.28a12.907,12.907,0,0,1,.067-1.312C59.732,399.975,59.821,398.4,59.928,396.83Z" transform="translate(-53.968 -245.95)" fill="#fff" opacity="0.1"/><path d="M173.6,185.906v55.6H139.56v-55.6h4.854V167.08h19.924v18.826Z" transform="translate(-77.514 -92.54)" fill="#6c63ff" opacity="0.1"/><rect width="34.039" height="61.712" transform="translate(62.051 150.876)" fill="#6c63ff" opacity="0.1"/><path d="M186.8,539.44h34.043v51.3a88.848,88.848,0,0,1-12.246,2.6l-1.017.125c-.5.058-.995.107-1.486.156s-1,.085-1.495.116h-.156c-.214,0-.446.027-.656.031h-.228c-.268,0-.535.027-.8.036h0c-.379.022-.758.027-1.147.031h-3.159l-.861-.031c-.446,0-.928-.049-1.392-.08h0l-.857-.062-1.066-.1c-.749-.067-1.495-.152-2.231-.254l-.892-.125-.446-.062c-.745-.116-1.481-.241-2.231-.384-.549-.094-1.093-.21-1.646-.321Z" transform="translate(-124.754 -324.939)" fill="#6c63ff" opacity="0.1"/><rect width="28.07" height="62.167" transform="translate(280.823 86.8)" fill="#6c63ff" opacity="0.1"/><path d="M519.907,338.19v61.716H380.58v-26.62h74.212v15.7h37.041v-50.8Z" transform="translate(-211.01 -187.314)" fill="#fff" opacity="0.1"/><path d="M567.589,604.551h-.446v40.485q-7.539-.638-15.034-1.735a245.754,245.754,0,0,1-65.16-19.014q-8.98-4.042-17.595-8.824a224.514,224.514,0,0,1-27.5-17.983q-3.283-2.516-6.482-5.148c-1.477-1.218-2.944-2.467-4.43-3.68-1.03-.834-2.07-1.655-3.123-2.44V538.382H538.7c-.076-.286-.152-.571-.232-.852.085.281.165.567.241.852h28.431v66.141C567.295,604.528,567.442,604.542,567.589,604.551Z" transform="translate(-258.25 -323.881)" fill="#fff" opacity="0.1"/><path d="M881.511,214.734H863.22V209.05h8.2V192.12q1.066.388,2.124.8V209.05h7.968Z" transform="translate(-499.411 -132.565)" fill="#6c63ff" opacity="0.1"/><path d="M870.822,311.983H781.027l.031.022-.04-.022H764.36V249.816h4.72v45.95h21.57V268.553h17.818V247.09h18.291v21.481h17.818v27.213h26.245Z" transform="translate(-444.654 -163.012)" fill="#fff" opacity="0.1"/><path d="M764.36,396.82v61.716H870.822V396.82ZM899.721,531.182l.147-48.85H870.822v-21.86H764.36V567.764a243.025,243.025,0,0,0,26.187-.312h.152q6.246-.393,12.433-1.142h.094a228.964,228.964,0,0,0,63.884-17.046" transform="translate(-444.654 -245.944)" fill="#fff" opacity="0.1"/><path d="M1094.244,539.44h24.835a85.922,85.922,0,0,1-8.24,36.207,87.583,87.583,0,0,1-18.469,24.916V561.3h1.874Z" transform="translate(-626.332 -324.939)" fill="#6c63ff" opacity="0.1"/><path d="M1121.419,471.126H1096.57V419.55h13.446C1116.976,435.811,1121.4,453.656,1121.419,471.126Z" transform="translate(-628.659 -258.534)" fill="#6c63ff" opacity="0.1"/><rect width="15.039" height="19.491" transform="translate(293.858 104.082)" fill="#6c63ff" opacity="0.1"/><rect width="15.039" height="4.488" transform="translate(293.858 144.483)" fill="#6c63ff" opacity="0.1"/><rect width="15.039" height="13.094" transform="translate(293.858 150.876)" fill="#6c63ff" opacity="0.1"/><rect width="15.039" height="19.491" transform="translate(293.858 184.883)" fill="#6c63ff" opacity="0.1"/><rect width="15.039" height="19.491" transform="translate(293.858 225.284)" fill="#6c63ff" opacity="0.1"/><path d="M721.455,669.129a2.478,2.478,0,0,1,.446.027h-.446v4.528H706.42V654.17h15.034Z" transform="translate(-412.562 -388.486)" fill="#6c63ff" opacity="0.1"/><path d="M721.455,744.71v15.057q-7.54-.638-15.034-1.735V744.71Z" transform="translate(-412.562 -438.634)" fill="#6c63ff" opacity="0.1"/><rect width="64.451" height="1.432" transform="translate(169.57 211.16)" fill="#6c63ff" opacity="0.1"/><rect width="64.451" height="5.487" transform="translate(169.57 214.497)" fill="#6c63ff" opacity="0.1"/><rect width="64.451" height="8.824" transform="translate(169.57 237.971)" fill="#6c63ff" opacity="0.1"/><path d="M496.138,652.15v8.824H445.727q-3.283-2.507-6.487-5.148c-1.477-1.218-2.94-2.467-4.43-3.676Z" transform="translate(-262.122 -387.367)" fill="#6c63ff" opacity="0.1"/><path d="M543.833,712.224v8.815H538.51q-8.971-4.046-17.59-8.829Z" transform="translate(-309.817 -420.633)" fill="#6c63ff" opacity="0.1"/><rect width="12.688" height="12.688" transform="translate(345.898 156.858)" fill="#6c63ff" opacity="0.1"/><rect width="12.688" height="12.688" transform="translate(71.187 97.743)" fill="#6c63ff" opacity="0.1"/><rect width="12.688" height="12.688" transform="translate(71.187 127.214)" fill="#6c63ff" opacity="0.1"/><rect width="12.688" height="12.688" transform="translate(71.187 156.684)" fill="#6c63ff" opacity="0.1"/><rect width="12.688" height="12.688" transform="translate(71.187 186.15)" fill="#6c63ff" opacity="0.1"/><rect width="12.688" height="12.688" transform="translate(71.187 215.621)" fill="#6c63ff" opacity="0.1"/><rect width="12.688" height="12.688" transform="translate(71.187 245.091)" fill="#6c63ff" opacity="0.1"/><rect width="12.688" height="12.688" transform="translate(394.333 156.858)" fill="#6c63ff" opacity="0.1"/><rect width="12.688" height="12.688" transform="translate(345.898 188.153)" fill="#6c63ff" opacity="0.1"/><rect width="12.688" height="12.688" transform="translate(394.333 188.153)" fill="#6c63ff" opacity="0.1"/><rect width="12.688" height="12.688" transform="translate(345.898 219.444)" fill="#6c63ff" opacity="0.1"/><rect width="12.688" height="12.688" transform="translate(394.333 219.444)" fill="#6c63ff" opacity="0.1"/><rect width="12.688" height="12.688" transform="translate(345.898 250.739)" fill="#6c63ff" opacity="0.1"/><rect width="12.688" height="12.688" transform="translate(394.333 250.739)" fill="#6c63ff" opacity="0.1"/><rect width="12.688" height="12.688" transform="translate(345.898 282.034)" fill="#6c63ff" opacity="0.1"/><rect width="12.688" height="12.688" transform="translate(394.333 282.034)" fill="#6c63ff" opacity="0.1"/><path d="M775.83,710.512V702.33h12.683v7.017Z" transform="translate(-429.932 -389.005)" fill="#6c63ff" opacity="0.1"/><path d="M65.24,357v7.258h43.421V357Zm4.327,6.8H66.025v-6.357h3.569Zm4.323,0H70.321v-6.357H73.89Zm4.314,0H74.635v-6.357H78.2Zm4.323,0H78.963v-6.357h3.569Zm4.318,0H83.277v-6.357h3.569Zm4.323,0H87.6v-6.357h3.569Zm4.323,0H91.922v-6.357h3.569Zm4.318,0H96.241v-6.357H99.81Zm4.318,0h-3.569v-6.357h3.569Zm4.318,0h-3.569v-6.357h3.569Z" transform="translate(-57.424 -223.889)" fill="#6c63ff" opacity="0.1"/><path d="M65.24,404.34V411.6h43.421V404.34Zm4.327,6.8H66.025V404.8h3.569Zm4.323,0H70.321V404.8H73.89Zm4.314,0H74.635V404.8H78.2Zm4.323,0H78.963V404.8h3.569Zm4.318,0H83.277V404.8h3.569Zm4.323,0H87.6V404.8h3.569Zm4.323,0H91.922V404.8h3.569Zm4.318,0H96.241V404.8H99.81Zm4.318,0h-3.569V404.8h3.569Zm4.318,0h-3.569V404.8h3.569Z" transform="translate(-57.424 -250.11)" fill="#6c63ff" opacity="0.1"/><path d="M65.24,451.7v7.272h43.421V451.7Zm4.327,6.8H66.025v-6.344h3.569Zm4.323,0H70.321v-6.344H73.89Zm4.314,0H74.635v-6.344H78.2Zm4.323,0H78.963v-6.344h3.569Zm4.318,0H83.277v-6.344h3.569Zm4.323,0H87.6v-6.344h3.569Zm4.323,0H91.922v-6.344h3.569Zm4.318,0H96.241v-6.344H99.81Zm4.318,0h-3.569v-6.344h3.569Zm4.318,0h-3.569v-6.344h3.569Z" transform="translate(-57.424 -276.341)" fill="#6c63ff" opacity="0.1"/><path d="M65.24,499.06v7.249h43.421V499.06Zm4.327,6.8H66.025v-6.348h3.569Zm4.323,0H70.321v-6.348H73.89Zm4.314,0H74.635v-6.348H78.2Zm4.323,0H78.963v-6.348h3.569Zm4.318,0H83.277v-6.348h3.569Zm4.323,0H87.6v-6.348h3.569Zm4.323,0H91.922v-6.348h3.569Zm4.318,0H96.241v-6.348H99.81Zm4.318,0h-3.569v-6.348h3.569Zm4.318,0h-3.569v-6.348h3.569Z" transform="translate(-57.424 -302.573)" fill="#6c63ff" opacity="0.1"/><path d="M65.66,546.41c.174.683.37,1.365.576,2.039v-1.584H69.8v6.344H67.9c.058.147.116.308.174.446h40.824V546.41Zm8.476,6.8H70.567v-6.344h3.569Zm4.314,0H74.881v-6.344H78.45Zm4.323,0H79.2v-6.344h3.569Zm4.318,0H83.523v-6.344h3.569Zm4.323,0H87.845v-6.344h3.569Zm4.323,0H92.168v-6.344h3.569Zm4.318,0H96.487v-6.344h3.569Zm4.318,0h-3.569v-6.344h3.569Zm4.318,0h-3.569v-6.344h3.569Z" transform="translate(-57.657 -328.8)" fill="#6c63ff" opacity="0.1"/><path d="M88.26,593.77c.112.143.219.3.335.446h2.36v3.047c.254.3.5.607.763.892V594.2h3.569v6.366H93.841c.143.147.281.3.446.446h27.137V593.77ZM99.6,600.565H96.027v-6.339H99.6Zm4.323,0H100.35v-6.339h3.569Zm4.323,0h-3.569v-6.339h3.569Zm4.318,0h-3.569v-6.339h3.569Zm4.318,0H113.31v-6.339h3.569Zm4.318,0h-3.569v-6.339H121.2Z" transform="translate(-70.174 -355.031)" fill="#6c63ff" opacity="0.1"/><path d="M141.65,641.12c.406.232.821.446,1.24.678v-.223h3.569v2.008l.758.352v-2.36h3.569v3.859a1.122,1.122,0,0,0,.214.08V641.12Z" transform="translate(-99.746 -381.258)" fill="#6c63ff" opacity="0.1"/><path d="M467.176,309.6ZM439.695,441.263Zm-28.672-66.994c.085.286.156.571.236.852h0C411.188,374.84,411.112,374.554,411.023,374.269Zm56.153-64.687ZM197.72,242.78v1.9h19.928v-1.9ZM439.695,441.263Zm-28.672-66.994c.085.286.156.571.236.852h0C411.188,374.84,411.112,374.554,411.023,374.269Zm56.153-64.687ZM439.695,441.249Zm-28.672-66.98c.085.286.156.571.236.852h0C411.188,374.84,411.112,374.554,411.023,374.269Z" transform="translate(-130.802 -160.625)" fill="#6c63ff" opacity="0.1"/><path d="M390.741,316.368s-1.758-.245-1.758-2.806a40.113,40.113,0,0,0-1.258-7.343h0c0-.022-1.088-8.329-2.592-9.65S381.7,287.5,381.7,287.5s-.33-4.207-1-5.113a43.438,43.438,0,0,1-2.927-6.286c-1.343-3.163-6.942-5.353-6.942-5.353s-10.122-5.871-12.991-7.785h0a4.394,4.394,0,0,1-.727-.549c-.5-.656-2.677-.669-2.677-.669a43.848,43.848,0,0,1-.517-4.582,3.478,3.478,0,0,0-.022-.482,15.436,15.436,0,0,0,6.786-8.4c.054-.169.1-.348.147-.517a1.45,1.45,0,0,0,.87-.785,16.353,16.353,0,0,1,.584-1.785,6.721,6.721,0,0,1,1.651-1.45c1.419-1.2,1.785-3.234,1.718-5.081-.045-1.494-.286-3-.192-4.488l.027-.375c.027-.223.058-.446.1-.66.219-1.106.7-2.15.964-3.248a4.178,4.178,0,0,0-.33-3.279c-.914-1.387-2.819-1.664-4.492-1.807-1.9-.161-3.591.049-4.8-1.526a17.128,17.128,0,0,0-1.91-2.306c-.25-.232-2.677-1.713-2.677-1.811a10.845,10.845,0,0,0-7.562-.58c-1.258.366-2.445.964-3.721,1.262-2.753.651-5.92-.053-8.258,1.521a9.706,9.706,0,0,0-2.815,3.694q-.892,1.709-1.811,3.413a22.105,22.105,0,0,0-2.4,5.84,9.258,9.258,0,0,0-.161,1.365h0v.727a2.4,2.4,0,0,0,.027.446c.027.138.022.183.036.277s.036.3.062.446.08.393.134.589c.022.085.054.165.08.245.045.152.1.3.156.446.031.076.063.156.1.232a4.165,4.165,0,0,0,.228.446c.036.062.062.12.1.178a5.938,5.938,0,0,0,.41.6c.955,1.191,2.36,1.95,3.4,3.065v.5a15.271,15.271,0,0,0,6.951,12.469c0,.17.022.344.031.513a25.537,25.537,0,0,1-.049,3.975,1.873,1.873,0,0,0-1.481-.66,2.134,2.134,0,0,0-.571.049l-.04-.031h0v.04c-.981.241-2.19,1.263-3.346,4.167,0,0-3.515,3.962-6.192,3.8s-9.453,4.122-9.453,4.122-6.612,4.292-8.03,8.664a61.059,61.059,0,0,1-2.846,7.263l-8.173,16.841h0l-1.508,13.361a61.99,61.99,0,0,1,.669,6.848c-.165.906,3.431,9.074,3.431,9.074s11.88,20.874,16.734,21.945l.348-.245a2.847,2.847,0,0,0,.656.245l1-.7a10.894,10.894,0,0,1-.076,2.355c-.669,2.061.25,15.512,1.419,18.148s.754,37.206.754,37.206l-.165,3.051a1.293,1.293,0,0,0,.04.268l-.04.723.12.063a8.591,8.591,0,0,1-.12,2.9,32.3,32.3,0,0,0-.589,5.121s-3.341,21.36-1.758,25.652,2.931,8.994,2.931,8.994,1.673,5.353.08,6.268-6.121,2.449-5.188,4.68c.848,2.061,4.064,7.584,4.542,8.391l-.04.424-.656,7.107a8.92,8.92,0,0,0,.754,2.713,4.674,4.674,0,0,0,4.769,2.98c.446-.031.964-.085,1.463-.152a63.23,63.23,0,0,0,10.841-2.819,4.415,4.415,0,0,1-.848-.7h0a2.449,2.449,0,0,1-.745-1.784c.071-1.294-2.351-7.459-2.953-8.976-.094-.219-.143-.344-.143-.344s5.523-5.773,4.6-10.89c0,0-6.112-3.569-4.1-5.527s5.608-7.584,5.608-7.584.165-21.034,0-24.175a26,26,0,0,1,.308-6.527c.067-.326.147-.642.232-.955a58.229,58.229,0,0,0,8.4.638c1.026,0,2.07,0,3.123-.062q0,.446.04.964c.232,5.211.665,14.347,1.017,17.742.5,4.867,3.261,17.983,3.261,17.983s-5.269,3.382.919,11.715c0,0,0,3.02-.41,3.457h0a37.828,37.828,0,0,0-1.057,4.354c-.259,1.57-.366,3.159.054,3.984,1,1.972,7.026,1.811,7.026,1.811h0l.147-.027A8.632,8.632,0,0,1,368.4,486.7c2.289,1.838,10.975,1.031,15.677.446,1.842-.232,3.074-.446,3.074-.446a1.783,1.783,0,0,0,.063-.642h0c-.049-1.156-.955-3.689-7.093-5.951,0,0-5.773-3.881-5.692-7.263h-.79a6.286,6.286,0,0,1,.8,0s-2.262-8.253-1.338-8.922-1.842-9.814-1.842-9.814-1.584-15.347-1.668-16.422a9.369,9.369,0,0,1,.415-2.721l-.415-8.414s-.08-2.8,0-3.707a18.527,18.527,0,0,0-.192-2.36c-.04-.312-.08-.638-.125-.959,2.164-.549,3.569-1.057,3.569-1.057l-.25-29.288c1.838-3.569,2.177-11.4,2.168-16.953,0-3.569-.161-6.21-.161-6.21l2.512-4.1s.58-4.907-.339-5.982a1.03,1.03,0,0,1,.112-1.405,4.664,4.664,0,0,1,.549-.375s-.027-.04-.058-.1a4.471,4.471,0,0,1,.558-.4s-.892-1.383-.094-1.967c.75.509,1.419.892,1.927,1.2-.036.326-.071.513-.071.513l.214-.446.79.446s3.935-7.838,3.85-8.994,2.677-6.023,2.677-6.023.335-2.556,1.842-3.627,1.169-8.829,1.169-8.829.419-4.042,1.423-5.692S390.741,316.368,390.741,316.368Zm-75.287-3.44.076,1.869-.767-1.236Z" transform="translate(-185.027 -146.987)" fill="url(#a)"/><path d="M473.906,499.156l-.964,4.1s-7.718-3.939-9.11-8.945,2.329-6.906,2.329-6.906l7.191,3.047Z" transform="translate(-278.025 -296.121)" fill="#fff"/><path d="M473.906,499.156l-.964,4.1s-7.718-3.939-9.11-8.945,2.329-6.906,2.329-6.906l7.191,3.047Z" transform="translate(-278.025 -296.121)" opacity="0.1"/><path d="M368.031,806.672s-7.138,2.623-12.045,2.953a4.583,4.583,0,0,1-4.68-2.962,8.966,8.966,0,0,1-.736-2.7l.638-7.071.339-3.765,10.426-2.708,1.477,4.515.138.344c.593,1.508,2.971,7.642,2.9,8.922a2.436,2.436,0,0,0,.732,1.762A4.246,4.246,0,0,0,368.031,806.672Z" transform="translate(-215.463 -463.952)" fill="#fff"/><path d="M459.218,802.495a1.783,1.783,0,0,1-.062.638s-15.266,2.547-18.389,0a8.271,8.271,0,0,0-6.424-1.882s-5.907.161-6.893-1.784a7.742,7.742,0,0,1-.049-3.962,37.729,37.729,0,0,1,1.035-4.332l.236-.187,1.405-1.129,16.453-.486h.125c-.08,3.364,5.585,7.223,5.585,7.223C458.259,798.823,459.146,801.344,459.218,802.495Z" transform="translate(-257.893 -463.37)" fill="#fff"/><path d="M459.221,810.111a1.821,1.821,0,0,1-.067.638s-15.262,2.547-18.385,0a8.271,8.271,0,0,0-6.42-1.883s-5.911.16-6.893-1.784a7.739,7.739,0,0,1-.054-3.962c2.275.228,5.866.794,7.276,2.146,2.133,2.057,5.746,4.109,7.963,4.269C444.378,809.647,454.759,809.977,459.221,810.111Z" transform="translate(-257.896 -470.987)" opacity="0.1"/><path d="M368.951,826s-7.138,2.623-12.045,2.953a4.571,4.571,0,0,1-4.675-2.967c1.816.611,4.336,1.254,5.661.665,1.57-.7,7.138-1.146,10.261-1.338A4.39,4.39,0,0,0,368.951,826Z" transform="translate(-216.383 -483.277)" opacity="0.1"/><path d="M398.715,319.767c-5.889-2.289-13.464-9.85-11.572-13.384a7.9,7.9,0,0,0,.736-2.837,25.906,25.906,0,0,0,.054-4.015,54.971,54.971,0,0,0-.79-6.531s18.385.415,17.314,3.123a10.125,10.125,0,0,0-.277,3.716c.085,1.544.308,3.288.54,4.765.321,2.025.642,3.569.642,3.569s-1.124,1.575-1.784,1.66S407.165,323.028,398.715,319.767Z" transform="translate(-235.556 -188.441)" fill="#cf6f80"/><path d="M364.35,795.279l-.138.152c-5.5-6.647-12.143,1.637-12.143,1.637l-.1-.174.339-3.765,10.426-2.708,1.477,4.515Z" transform="translate(-216.239 -463.952)" opacity="0.1"/><path d="M448.234,789.816s-4.015-.085-6.156,1.807-12.491.411-12.045,0a1.465,1.465,0,0,0,.232-.678l1.405-1.129,16.453-.486C448.185,789.629,448.234,789.816,448.234,789.816Z" transform="translate(-259.468 -463.348)" opacity="0.1"/><path d="M365.551,662.471a12.422,12.422,0,0,0-.678,2.289,26.187,26.187,0,0,0-.308,6.5c.165,3.123,0,24.05,0,24.05s-3.529,5.581-5.5,7.548,4.015,5.5,4.015,5.5c.892,5.086-4.515,10.832-4.515,10.832-5.5-6.647-12.143,1.642-12.143,1.642s-3.614-6.246-4.515-8.476,3.529-3.774,5.086-4.68-.076-6.246-.076-6.246-1.316-4.68-2.878-8.949,1.722-25.522,1.722-25.522a32.943,32.943,0,0,1,.576-5.09,8.51,8.51,0,0,0,.12-2.891c-.027-.326-.058-.6-.08-.781s-.04-.268-.04-.268l.062-.107,2.231-4.158S366.622,659.852,365.551,662.471Z" transform="translate(-210.601 -388.203)" fill="#1d2366"/><path d="M442.248,719.6s-4.015-.085-6.156,1.785-12.491.41-12.045,0,.41-3.449.41-3.449c-6.072-8.289-.892-11.653-.892-11.653s-2.712-13.049-3.2-17.889c-.343-3.382-.767-12.469-.995-17.657-.1-2.231-.156-3.765-.156-3.765l4.961-1,.638-.129,11.965-2.4s.33,2.231.553,4.055a19,19,0,0,1,.187,2.351c-.08.892,0,3.685,0,3.685l.406,8.374a9.515,9.515,0,0,0-.406,2.708c.08,1.066,1.637,16.333,1.637,16.333s2.708,9.109,1.785,9.766S442.248,719.6,442.248,719.6Z" transform="translate(-253.482 -393.62)" fill="#1d2366"/><path d="M404.824,296.123a10.124,10.124,0,0,0-.277,3.716,15.279,15.279,0,0,1-16.248-.3,54.989,54.989,0,0,0-.79-6.536S405.895,293.406,404.824,296.123Z" transform="translate(-235.924 -188.44)" opacity="0.1"/><path d="M404.354,258.946a15.11,15.11,0,0,1-.75,4.733,15.266,15.266,0,0,1-29.774-4.367v-.366a15.265,15.265,0,1,1,30.53,0Z" transform="translate(-228.346 -161.123)" fill="#cf6f80"/><path d="M398.715,332.861c-5.889-2.289-13.464-9.85-11.572-13.384a7.9,7.9,0,0,0,.736-2.837l8.061,6.625,4.988,4.091,3.792-9.654c.321,2.025.642,3.569.642,3.569s-1.124,1.575-1.784,1.66S407.165,336.122,398.715,332.861Z" transform="translate(-235.556 -201.534)" opacity="0.1"/><path d="M365.456,302.629,358.724,415.72l-8.78.576L327.21,350.721l3.73-77.852.785-16.448,10.109,8.3,4.992,4.091,3.9-9.935,7.258,6.326Z" transform="translate(-181.45 -142.023)" fill="#1d2366"/><path d="M371.205,662.515a12.4,12.4,0,0,0-.678,2.289,64.69,64.69,0,0,1-18.407-5.751l-.12-.062.04-.718.022-.375,2.231-4.158S372.276,659.9,371.205,662.515Z" transform="translate(-216.255 -388.248)" opacity="0.1"/><path d="M424.24,673.362a45.2,45.2,0,0,1-4.934.562c-.1-2.231-.156-3.765-.156-3.765l4.961-1Z" transform="translate(-253.448 -396.788)" opacity="0.1"/><path d="M444.218,667.545a34.627,34.627,0,0,1-12.456,1.173l-.062-2.828,11.965-2.4S444,665.7,444.218,667.545Z" transform="translate(-260.4 -393.648)" opacity="0.1"/><path d="M359.844,476.216c-18.291,3.123-35.043-5.831-35.043-5.831l.161-3.034s.415-34.391-.736-37.028-2.048-16.007-1.4-18.059-2.378-32.825-2.378-32.825l-.491-12.491L302,359.672l8.03-16.738a60.414,60.414,0,0,0,2.793-7.227c1.4-4.345,7.879-8.615,7.879-8.615s6.647-4.265,9.275-4.1,6.072-3.774,6.072-3.774c2.543-6.482,4.845-3.547,4.845-3.547a5.793,5.793,0,0,1-.125.959c-.892,7.116,14.428,29.6,14.646,30h0l1.459,35.538,1.477,44.973Z" transform="translate(-188.561 -200.628)" opacity="0.1"/><path d="M358.727,476.183c-18.291,3.123-35.047-5.831-35.047-5.831l.165-3.034s.415-34.391-.74-37.028-2.048-16.007-1.392-18.059-2.378-32.825-2.378-32.825l-.5-12.491-17.97-7.3,8.03-16.739a61.352,61.352,0,0,0,2.793-7.227c1.392-4.345,7.878-8.615,7.878-8.615s6.647-4.265,9.27-4.1,6.072-3.774,6.072-3.774c2.547-6.482,5.353-3.547,5.353-3.547,0,.308-.268.446-.125.959,1.963,6.9,13.937,29.6,14.155,30h0l1.477,35.538,1.477,44.973Z" transform="translate(-187.935 -200.595)" fill="#fff"/><path d="M398.59,348.859c-1.967-.821-12.389-12.719-12.389-12.719v-2.708c-.379-.892-2.632-.348-4.461.277l.785-16.448.892.741C385.372,324.9,398.362,348.461,398.59,348.859Z" transform="translate(-232.728 -201.878)" opacity="0.1"/><path d="M399.694,346.649c-1.972-.821-12.393-12.719-12.393-12.719v-2.708c-.379-.892-2.632-.348-4.461.276l.79-16.448.892.741C386.48,322.688,399.476,346.256,399.694,346.649Z" transform="translate(-233.337 -200.653)" fill="#fff"/><path d="M351.864,517.262c.245,0,12.719-1.312,12.719-1.312s7.553,14.851,7.058,18.465-1.392,6.812-4.43,6.246-16.35.446-16.35.446Z" transform="translate(-215.624 -311.928)" opacity="0.1"/><path d="M350.754,515.052c.245,0,12.719-1.312,12.719-1.312s7.548,14.856,7.058,18.465-1.4,6.812-4.43,6.246-16.35.446-16.35.446Z" transform="translate(-215.009 -310.704)" fill="#fff"/><path d="M364.6,501.05s11.447,6.152,11.693,8.03-5.826-.821-7.138-1.147a16.333,16.333,0,0,0-2.628-.411l-8.748.236Z" transform="translate(-219.457 -303.676)" fill="#cf6f80"/><circle cx="1.205" cy="1.205" r="1.205" transform="translate(161.464 145.339)" opacity="0.1"/><circle cx="1.205" cy="1.205" r="1.205" transform="translate(161.464 144.849)" fill="#3f3d56"/><circle cx="1.205" cy="1.205" r="1.205" transform="translate(163.681 197.482)" opacity="0.1"/><circle cx="1.205" cy="1.205" r="1.205" transform="translate(163.681 196.986)" fill="#3f3d56"/><circle cx="1.205" cy="1.205" r="1.205" transform="translate(162.664 171.41)" opacity="0.1"/><circle cx="1.205" cy="1.205" r="1.205" transform="translate(162.664 170.92)" fill="#3f3d56"/><path d="M449.375,406.361s.821,1.231,0,1.807.08,1.967.08,1.967-2.048,1.2-1.147,2.28.33,5.956.33,5.956l-2.463,4.077s.147,2.628.156,6.179c0,5.541-.326,13.33-2.128,16.881l.25,29.136s-8.623,3.149-15.842,2.19l-1.071-46.753s1.561-26.513,2.137-31.6a52.93,52.93,0,0,0,.41-7.963s-.245-7.959-1.071-11.653c0,0-.892-16-.982-20.432-.04-2.119.071-8.3.2-14.182.138-6.429.294-12.491.294-12.491L426.9,318.877s1.628-.165,2.119.491a4.692,4.692,0,0,0,.714.549h0c2.811,1.9,12.741,7.745,12.741,7.745s5.5,2.186,6.812,5.318a46.339,46.339,0,0,0,2.869,6.246c.638.892.986,5.086.986,5.086s1.892,7.718,3.368,9.025,2.556,9.623,2.556,9.623l-13.049,10.261s-1.147,17.069-1.392,17.729S449.375,406.361,449.375,406.361Z" transform="translate(-257.741 -202.763)" fill="#fff"/><path d="M449.832,406.185s.816,1.231,0,1.807.076,1.967.076,1.967-2.034,1.213-1.142,2.293.33,5.956.33,5.956l-2.463,4.077s.147,2.628.161,6.179c0,5.541-.326,13.33-2.128,16.881l.245,29.136s-8.637,3.15-15.846,2.191L428,429.918s1.561-26.513,2.137-31.6a52.446,52.446,0,0,0,.406-7.963s-.245-7.959-1.066-11.653c0,0-.892-16-.986-20.432-.04-2.119.076-8.3.2-14.182.138-6.429.294-12.491.294-12.491l-2.15-13.058s2.15,0,2.646.665a4.231,4.231,0,0,0,.714.549h0c2.81,1.9,12.746,7.745,12.746,7.745s5.492,2.186,6.808,5.318a45.617,45.617,0,0,0,2.873,6.246c.643.892.982,5.086.982,5.086s1.891,7.718,3.368,9.025,2.543,9.605,2.543,9.605l-13.049,10.261s-1.146,17.068-1.4,17.729S449.832,406.185,449.832,406.185Z" transform="translate(-257.702 -202.587)" fill="#fff"/><path d="M434.819,336.6,436,340.034l-6.2,6.246c.138-6.424.294-12.491.294-12.491l-2.15-13.058s2.15,0,2.645.665a4.067,4.067,0,0,0,.714.544h0l5.273,15.213Z" transform="translate(-258.317 -203.8)" opacity="0.1"/><path d="M433.709,334.389l1.182,3.435-6.2,6.246c.138-6.429.294-12.491.294-12.491L426.83,318.52s2.155,0,2.645.665a4.46,4.46,0,0,0,.714.549h0l5.278,15.208Z" transform="translate(-257.702 -202.576)" fill="#fff"/><path d="M404.354,258.946a15.11,15.11,0,0,1-.75,4.733.638.638,0,0,1-.482-.12c-.116-4.015-2.092-7.785-4.524-10.992a11.549,11.549,0,0,0-2.454-2.543,4.8,4.8,0,0,0-3.328-.941c-1.338.183-2.52,1.093-3.872,1.209-1.784.147-3.382-1.089-5.153-1.151A5.063,5.063,0,0,0,380,250.9a10.392,10.392,0,0,0-2.03,3.765,22.029,22.029,0,0,0-1.133,6.5c-.022,1.249-.143,2.815-1.3,3.27a6.665,6.665,0,0,0-1.682-5.09l-.027-.027v-.366a15.265,15.265,0,1,1,30.53,0Z" transform="translate(-228.346 -161.123)" opacity="0.1"/><path d="M389.624,222.329a10.511,10.511,0,0,0-7.414-.58c-1.236.366-2.4.959-3.654,1.258-2.677.647-5.8-.053-8.1,1.512a9.686,9.686,0,0,0-2.757,3.672l-1.784,3.4a22.062,22.062,0,0,0-2.36,5.8,7.4,7.4,0,0,0,1.138,5.987c.946,1.2,2.342,1.954,3.368,3.083a6.691,6.691,0,0,1,1.677,5.086c1.164-.446,1.276-2.016,1.3-3.266a22.025,22.025,0,0,1,1.133-6.5,10.352,10.352,0,0,1,2.03-3.765,5.072,5.072,0,0,1,3.788-1.758c1.785.062,3.386,1.294,5.153,1.146,1.338-.112,2.525-1.026,3.872-1.2a4.782,4.782,0,0,1,3.328.941,11.431,11.431,0,0,1,2.449,2.543c2.436,3.208,4.412,6.968,4.528,10.992.5.37,1.231-.112,1.481-.683a16.324,16.324,0,0,1,.576-1.784A6.579,6.579,0,0,1,401,246.776c1.392-1.2,1.74-3.221,1.686-5.054a25.182,25.182,0,0,1-.062-5.5c.21-1.106.683-2.141.941-3.234a4.229,4.229,0,0,0-.321-3.261c-.892-1.383-2.77-1.655-4.408-1.784-1.86-.161-3.524.045-4.711-1.521a17.087,17.087,0,0,0-1.874-2.293C392.011,223.9,389.624,222.427,389.624,222.329Z" transform="translate(-222.557 -148.743)" fill="#512e4e"/><path d="M305.9,423.749l-4.662-8.619-1.477,13.3a61.629,61.629,0,0,1,.656,6.812c-.165.906,3.364,9.025,3.364,9.025S315.437,465.029,320.2,466.1l16.083-11.492-4.265-5.416s-1.477-.576-1.847,0c0,0-7.919-13.624-8.739-14.61a4.921,4.921,0,0,1-.66-2.953s-1.231-1.312-.821-2.543-2.378-5.5-2.378-5.5l2.543-2.378Z" transform="translate(-187.32 -256.086)" opacity="0.1"/><path d="M300.258,412.93l-1.231.981-1.477,13.3a61.631,61.631,0,0,1,.656,6.812c-.165.906,3.368,9.025,3.368,9.025s11.653,20.762,16.413,21.833l16.087-11.492-4.269-5.416s-1.477-.575-1.847,0c0,0-7.919-13.624-8.74-14.61a4.906,4.906,0,0,1-.656-2.953s-1.231-1.312-.821-2.543-2.382-5.5-2.382-5.5l2.543-2.378Z" transform="translate(-186.096 -254.868)" fill="#fff"/><path d="M463.335,519.845c.892,1.084.33,5.951.33,5.951l-2.463,4.078s.147,2.632.156,6.179l-4.14,1.294a2.458,2.458,0,0,1-3.19-2.422l.714-23.024,9.658,3.694c-.821.571.08,1.972.08,1.972S462.434,518.761,463.335,519.845Z" transform="translate(-272.766 -309.685)" opacity="0.1"/><path d="M464.439,518.741c.892,1.084.33,5.956.33,5.956l-2.463,4.078s.147,2.628.161,6.179l-4.216,1.316a2.409,2.409,0,0,1-3.123-2.373l.718-23.1,9.663,3.694c-.825.571.076,1.967.076,1.967S463.547,517.661,464.439,518.741Z" transform="translate(-273.376 -309.076)" fill="#fff"/><path d="M473.577,499.54s-.656,4.189-2.3,4.434-2.378,6.777-4.015,6.545-.553-6.072-.5-7.2-1.784-5.826-.406-6.893,5.742,0,5.742,0Z" transform="translate(-279.315 -300.85)" fill="#cf6f80"/><path d="M474.979,423.936l3.1-6.246a40.55,40.55,0,0,1,1.231,7.3c0,2.543,1.722,2.793,1.722,2.793s1.887,2.231.892,3.854-1.4,5.666-1.4,5.666.326,7.713-1.151,8.78-1.784,3.614-1.784,3.614-2.712,4.84-2.628,5.991-3.774,8.945-3.774,8.945,1.887-9.685-9.11-13.87c0,0-.085-3.288.736-4.189s2.1-1.312,1.3-5.867-.232-10-.232-11.091,2.463-7.91,2.463-7.91Z" transform="translate(-277.223 -257.504)" opacity="0.1"/><path d="M477.475,415.69l2.7.892a40.415,40.415,0,0,1,1.236,7.3c0,2.543,1.722,2.793,1.722,2.793s1.887,2.23.892,3.854-1.392,5.666-1.392,5.666.326,7.713-1.151,8.78-1.807,3.614-1.807,3.614-2.708,4.84-2.623,5.991-3.779,8.945-3.779,8.945,1.892-9.685-9.11-13.87c0,0-.08-3.288.74-4.189s2.1-1.312,1.3-5.866-.232-10-.232-11.09,2.463-7.91,2.463-7.91Z" transform="translate(-278.381 -256.396)" fill="#fff"/><path d="M360.15,776.751s4.31-2.708,7.138-.741S360.15,776.751,360.15,776.751Z" transform="translate(-220.769 -455.574)" opacity="0.1"/><path d="M435.21,759.761a8.724,8.724,0,0,1,7.017,2.958C445.431,766.167,435.21,759.761,435.21,759.761Z" transform="translate(-262.344 -446.957)" opacity="0.1"/><g transform="translate(140.824 82.388)" opacity="0.1"><path d="M408.926,263.032a6.616,6.616,0,0,0-1.619,1.441,16.314,16.314,0,0,0-.571,1.784c-.25.58-.977,1.053-1.481.687-.116-4.015-2.1-7.785-4.528-11a11.431,11.431,0,0,0-2.449-2.543,4.8,4.8,0,0,0-3.333-.941c-1.338.183-2.516,1.093-3.868,1.2-1.784.152-3.386-1.084-5.157-1.147a5.05,5.05,0,0,0-3.783,1.762,10.331,10.331,0,0,0-2.03,3.761,22.051,22.051,0,0,0-1.133,6.5c-.027,1.245-.143,2.8-1.294,3.261a6.112,6.112,0,0,1,0,.99c1.16-.446,1.276-2.016,1.3-3.266a22.028,22.028,0,0,1,1.133-6.5,10.356,10.356,0,0,1,2.03-3.765,5.064,5.064,0,0,1,3.783-1.758c1.784.063,3.391,1.294,5.157,1.147,1.338-.112,2.525-1.026,3.868-1.2a4.8,4.8,0,0,1,3.332.941,11.428,11.428,0,0,1,2.449,2.543c2.431,3.207,4.412,6.968,4.528,10.992.5.37,1.231-.112,1.481-.683a17.294,17.294,0,0,1,.571-1.784,6.6,6.6,0,0,1,1.619-1.437c1.392-1.2,1.74-3.221,1.686-5.055v-.17A5.857,5.857,0,0,1,408.926,263.032Z" transform="translate(-371.303 -248.364)"/><path d="M368.076,267.112c-1.026-1.129-2.427-1.883-3.368-3.078a6.531,6.531,0,0,1-1.3-3.654,6.871,6.871,0,0,0,1.3,4.635c.941,1.2,2.342,1.954,3.368,3.083a6.692,6.692,0,0,1,1.682,3.979A6.692,6.692,0,0,0,368.076,267.112Z" transform="translate(-363.385 -252.76)"/><path d="M452.11,244.183c-.263,1.093-.732,2.132-.946,3.234a10.3,10.3,0,0,0-.138,2.231,8.658,8.658,0,0,1,.138-1.267c.214-1.106.682-2.141.946-3.234a5.485,5.485,0,0,0,.147-1.847A6.19,6.19,0,0,1,452.11,244.183Z" transform="translate(-411.921 -243.3)"/></g><ellipse cx="43.47" cy="6.982" rx="43.47" ry="6.982" transform="translate(15.529 325.353)" fill="#6c63ff" opacity="0.1"/><rect width="2.797" height="62.979" transform="translate(57.603 198.588)" fill="#535461"/><path d="M175.394,639.2l-.174,2.837-.25,4.015-.1,1.669-.245,4.015-.107,1.669-.25,4.015-2.819,45.535a7.718,7.718,0,0,1-7.7,7.236H149.087a7.713,7.713,0,0,1-7.7-7.236l-2.806-45.567-.25-4.015-.1-1.669-.25-4.015-.1-1.669-.25-4.015-.178-2.837a4.015,4.015,0,0,1,4.015-4.243h29.984a3.988,3.988,0,0,1,3.944,4.274Z" transform="translate(-97.417 -377.829)" fill="#3f3d56"/><path d="M128.188,592.24l-.25,4H90.83l-.25-4Z" transform="translate(-50.385 -328.028)" fill="#9d9cb5"/><path d="M128.273,604.95l-.245,4.006H91.62l-.25-4.006Z" transform="translate(-50.822 -335.068)" fill="#9d9cb5"/><path d="M128.358,617.68l-.245,4H92.41l-.25-4Z" transform="translate(-51.26 -342.119)" fill="#9d9cb5"/><path d="M83.663,541.215c16.288,11.787,23.087,30.22,23.087,30.22s-19.629-.674-35.921-12.46S47.75,528.76,47.75,528.76,67.37,529.429,83.663,541.215Z" transform="translate(-47.737 -319.024)" fill="#728e5e"/><path d="M47.72,528.76S68.1,540.069,74.634,549.433s32.1,22,32.1,22" transform="translate(-47.72 -319.024)" fill="none" stroke="#535461" stroke-miterlimit="10" stroke-width="2"/><path d="M127.549,495.041c8.864,6.411,12.572,16.444,12.572,16.444s-10.685-.366-19.553-6.777S108,488.26,108,488.26,118.68,488.626,127.549,495.041Z" transform="translate(-81.108 -296.591)" fill="#728e5e"/><path d="M108,488.26s11.091,6.156,14.646,11.251,17.474,11.974,17.474,11.974" transform="translate(-81.108 -296.591)" fill="none" stroke="#535461" stroke-miterlimit="10" stroke-width="2"/><path d="M193.53,520.9c-10.185,11.193-12.34,25.822-12.34,25.822S195.551,543.2,205.727,532s12.34-25.821,12.34-25.821S203.715,509.709,193.53,520.9Z" transform="translate(-121.647 -306.517)" fill="#728e5e"/><path d="M218.075,506.19s-13.268,11.474-16.64,19.38-20.245,21.159-20.245,21.159" transform="translate(-121.647 -306.522)" fill="none" stroke="#535461" stroke-miterlimit="10" stroke-width="2"/><path d="M922.6,382.653s-7.366-36.644-4.546-41.2c0,0,.1-4.238-.067-9.641v-.62a13.73,13.73,0,0,0,1.548.892,12.526,12.526,0,0,0,8.432,1.089l-2.23-2.485a4.119,4.119,0,0,1-1.209-2.021,4.238,4.238,0,0,1,.482-2.186c2.119-5.353,2.231-12.085-1.851-16.172-3.448-3.435-4.287-7.87-8.03-11.006-2.735-2.3-4.238-5.666-5.657-8.922a50.186,50.186,0,0,1-3.1-8.445c-.535-2.28-.749-4.64-1.486-6.866a8.74,8.74,0,0,0-4.269-5.385,16.116,16.116,0,0,1-2.32-1.022,10.016,10.016,0,0,1-2.137-2.512c-3.377-4.461-14.686-1.834-20.04-.022a11.273,11.273,0,0,0-3.961,2.195l.049-.08c.04-.067.089-.134.134-.2a7.032,7.032,0,0,0-1.5,1.673,40.083,40.083,0,0,0-1.758,4.015c-.785,1.584-5.153,6-3.274,7.785a1.581,1.581,0,0,0,.446.286,3.86,3.86,0,0,0,2.231.223l-.08.192a13.037,13.037,0,0,0-.968,4.947,13.39,13.39,0,0,0,13.509,13.272,13.637,13.637,0,0,0,4.135-.638c.031.169.058.339.089.509a1.582,1.582,0,0,0,.031.2h0l-.236.33a.416.416,0,0,0-.04-.058l-7,9.788c-1.071.754-7.236,5.215-7.584,8.561-.366,3.663-.732,7.95-.732,7.95l-.049.919a2.757,2.757,0,0,1-2.231.6c-2.186-.357-2.186,8.03-2.186,8.03s-1.454,1.338-2.454.178-3.64,2.77-3.64,2.77l-16.551.714h0l-.379.022-.892-2.761a1.165,1.165,0,0,0-1.459-.745,1.322,1.322,0,0,0-.2.085l-.062.036-.116.08-.058.054a.891.891,0,0,0-.089.094l-.053.062-.027.027h0a1.124,1.124,0,0,0-.161,1l.767,2.369c-3.194.642-6.46,2.454-3.8,7.441l-13.5-2.494,4.368,3.667,22.547,4.653c-.3.535-.1,1.312.83,2.4,4.015,4.715,11.331,6,14.276,6.326a25.347,25.347,0,0,0,2.9,4.907l-.254,4.7s-7.455,35.805-8.82,37.621a21.211,21.211,0,0,0,1.887-2.485c-2.164,7.356-5.188,17.425-5.982,18.933-1.276,2.409-2.458,12.157-1,12.781a12.242,12.242,0,0,0,3.542-.04v.808l-.08,30.6s.366,18.768-.638,20.557-1.271,5.541-1.271,5.541-4.015,7.4-7.2,10.377a.47.47,0,0,1-.071.062l-.1-.7s-3.823,4.827-12.282,4.555c0,0-5.09,3.31,2.458,3.489s17.189-.268,17.189-.268,6.732-10.261,12.371-8.922V512.9h1.727V505a7.08,7.08,0,0,0,3.074-4.653,5.657,5.657,0,0,0-2.016-5.233,3.347,3.347,0,0,1-1.1-2.445l-.062.053a4.7,4.7,0,0,0-.058-.482c-.5-4.015-1.115-12.3,1.075-18.429,3-8.4,3.912-20.111,1.726-27.079a62.259,62.259,0,0,1-1.735-6.786c-.054-.29-.1-.566-.147-.825a35.185,35.185,0,0,1,4.43.892c5.063,1.4,16.141,1.655,25.6,1.579.022.259.049.531.08.8a29.216,29.216,0,0,0,1.053,5.585c1.187,3.569,1.731,19.3,1.731,19.3s1.53,12.937.7,18.2c-.446,2.927-.892,5.866-1.147,8.82v.058s-2.507,7.138-4.341,11.015c-.045.1-.094.2-.138.29a5.8,5.8,0,0,0-1.432.317s-2.458,4.907-4.907,5.719-1.637,3.484,3.908,2.5,13.919-1.784,13.919-1.784l.361-5.005,1.7-2.133-.446,4.992,1.816-.357-.241-6.072,2.788-3.489s3.368-3-1.637-8.9v.129c-.053-.085-.1-.174-.16-.259v-.027c-.83-1.285-1.49-3.68-.281-7.932,2.186-7.682,3.457-14.655,3.457-14.655s4.88-18.679-.986-27.517h.259a14.865,14.865,0,0,1-1.263-3.926q-.044-.241-.08-.5a32.2,32.2,0,0,0,12.076-2.73C926.42,434.037,924.328,389.711,922.6,382.653Zm-55.109-30.916v.089l-.892.045Zm-3.06.424a.987.987,0,0,0-.4.192,3.961,3.961,0,0,0-.7,1.834l-1.392-.312s-.977-.21-2.382-.446l-.665-.669C860.716,352.607,862.616,352.384,864.428,352.161Z" transform="translate(-476.84 -172.207)" fill="url(#b)"/><path d="M971.851,742.422l-.531,6.321,1.78-.357-.268-6.857Z" transform="translate(-538.211 -410.717)" fill="#1d2366"/><path d="M898.585,687.895c-2.146,6.112-1.539,14.36-1.057,18.366.178,1.481.344,2.382.344,2.382s-3.208,7.307-3.475,7.584-9.44,5.875-9.44,5.875l-6.411,3.743s-6.5-2.851-3.386-3.832a4.733,4.733,0,0,0,1.682-1.147c3.123-2.967,7.044-10.341,7.044-10.341s.267-3.743,1.249-5.523.625-20.486.625-20.486l.076-30.492V650.05l12.2.089a27.6,27.6,0,0,0,.526,4.015,61.409,61.409,0,0,0,1.7,6.763C902.413,667.873,901.521,679.521,898.585,687.895Z" transform="translate(-505.555 -386.204)" fill="#ffb0b1"/><path d="M897.872,778.444s-3.208,7.307-3.475,7.584-9.44,5.875-9.44,5.875l-6.411,3.743s-6.5-2.851-3.386-3.832a4.732,4.732,0,0,0,1.682-1.146l.277,1.95,2.137-.089,18.291-16.457C897.707,777.542,897.872,778.444,897.872,778.444Z" transform="translate(-505.555 -456.004)" opacity="0.1"/><path d="M883.579,777l-18.393,16.569-2.137.089-.446-3.123s-3.738,4.809-12.045,4.542c0,0-4.988,3.3,2.4,3.475s16.832-.267,16.832-.267,6.594-10.261,12.112-8.922v7.749h1.7v-7.821a7.043,7.043,0,0,0,3.007-4.64,5.684,5.684,0,0,0-1.967-5.211A3.358,3.358,0,0,1,883.579,777Z" transform="translate(-491.486 -456.519)" fill="#1d2366"/><path d="M1002.982,697.011c-1.187,4.238-.54,6.625.272,7.905v.027a14.615,14.615,0,0,1,2.133,5.206l.071.4-8.369,12.2-4.542,1.784s-7.3-2.494-5.969-3.208a6.841,6.841,0,0,0,1.454-2.382c1.784-3.859,4.247-10.979,4.247-10.979v-.058c.259-2.94.669-5.871,1.124-8.789.817-5.251-.682-18.139-.682-18.139s-.535-15.672-1.7-19.237a29.43,29.43,0,0,1-1.039-5.55c-.241-2.231-.294-4.068-.294-4.068s4.809-6.692,13.625.535a9.7,9.7,0,0,1,1.842,2c6.089,8.663,1.187,27.749,1.187,27.749S1005.119,689.351,1002.982,697.011Z" transform="translate(-567.646 -385.791)" fill="#ffb0b1"/><path d="M1005.488,779.462l-8.369,12.2-4.542,1.784s-7.3-2.494-5.969-3.207a6.832,6.832,0,0,0,1.454-2.382c3.092-.027,4.693,2.917,4.693,2.917l3.917-.625S1001.839,780,1003,779.377s.179-4.635.179-4.635V773.72c.031.036.058.076.094.112v.027a14.609,14.609,0,0,1,2.133,5.206Z" transform="translate(-567.663 -454.702)" opacity="0.1"/><path d="M985.548,791.36s-2.231-4.1-6.5-2.583c0,0-2.4,4.907-4.809,5.7s-1.6,3.471,3.832,2.494,13.624-1.784,13.624-1.784l.357-4.992,5.523-7.035s3.292-2.984-1.606-8.86v1.022s.982,4.015-.178,4.635-6.308,10.778-6.308,10.778Z" transform="translate(-560.188 -455.024)" fill="#1d2366"/><path d="M912.355,650.119a27.636,27.636,0,0,0,.527,4.015,55.957,55.957,0,0,0-12.741-.13V650.03Z" transform="translate(-519.86 -386.193)" opacity="0.1"/><path d="M1009.745,655.766s-7.138.348-15.65.419c-.241-2.231-.294-4.069-.294-4.069s4.809-6.692,13.624.535a9.7,9.7,0,0,1,1.843,2A10.839,10.839,0,0,0,1009.745,655.766Z" transform="translate(-571.737 -385.786)" opacity="0.1"/><path d="M952.756,557.943s-31.264,1.512-40.793-1.16-18.974-.357-20.4-.977-.268-10.332.981-12.737,8.1-26.722,8.1-26.722l6.594-34.378,6.946-1.914.491-.138,12.1-3.337,8.869-2.449s17.635,68.85,16.123,73.926a13,13,0,0,0-.259,5.973A14.907,14.907,0,0,0,952.756,557.943Z" transform="translate(-514.747 -288.765)" fill="#1d2366"/><path d="M871.92,439s-6.245,6.692-1.517,10.421,7.838.357,7.838.357Z" transform="translate(-502.409 -269.307)" fill="#c7daf5"/><path d="M871.92,439s-6.245,6.692-1.517,10.421,7.838.357,7.838.357Z" transform="translate(-502.409 -269.307)" opacity="0.1"/><path d="M972.522,325.236s-.731.7-1.833,1.722c-1.57,1.468-3.895,3.613-5.956,5.411-2.855,2.485-5.211,4.31-4.367,2.753s.682-4.269.263-6.808c-.031-.17-.058-.339-.089-.5a46.745,46.745,0,0,0-1.378-5.514,95.379,95.379,0,0,1,7.165-8.311c.95-.892,1.615-1.258,1.655-.638a20.712,20.712,0,0,0,1.445,4.631c.022.063.045.12.071.183.518,1.338,1.1,2.712,1.615,3.9C971.9,323.88,972.522,325.236,972.522,325.236Z" transform="translate(-552.55 -199.539)" fill="#ffb0b1"/><path d="M969.5,318.167a13.241,13.241,0,0,1-8.869,10.154,46.418,46.418,0,0,0-1.468-6.018s8.686-11.22,8.82-8.949A21.216,21.216,0,0,0,969.5,318.167Z" transform="translate(-552.55 -199.546)" opacity="0.1"/><path d="M939.773,352.034l1.124-1.584s.745,4.541,3.484,2.538,2.873,15.074,2.873,15.074l-2.94,43.956-21.244-1.272.6-21.24,2.4-10.707,5.947-15.565,3.538-5.144Z" transform="translate(-532.56 -220.261)" opacity="0.1"/><path d="M947.271,368.645l-2.677,39.745-.281,4.211-11.845-.709-.446-.027-8.922-.535.6-21.244,2.4-10.707,5.947-15.565,3.538-5.144,4.211-6.081,1.124-1.579s.745,4.542,3.484,2.538l.058-.04h0C947.146,351.813,947.271,368.645,947.271,368.645Z" transform="translate(-532.577 -220.571)" fill="#1d2366"/><path d="M896.33,406.26s-1.066,2.231-3.208,1.869-2.137,8.03-2.137,8.03-1.423,1.338-2.4.178-3.569,2.761-3.569,2.761l-16.212.714s7.214,3.3,5.8,13.272c0,0,24.492-1.517,25.295-3.832S896.33,406.26,896.33,406.26Z" transform="translate(-502.501 -251.173)" fill="#fff"/><path d="M896.33,406.26s-1.066,2.231-3.208,1.869-2.137,8.03-2.137,8.03-1.423,1.338-2.4.178-3.569,2.761-3.569,2.761l-16.212.714s7.214,3.3,5.8,13.272c0,0,24.492-1.517,25.295-3.832S896.33,406.26,896.33,406.26Z" transform="translate(-502.501 -251.173)" opacity="0.03"/><path d="M777.66,389.76l4.274,3.649,35.181,7.392-4.363-4.452Z" transform="translate(-430.946 -215.878)" fill="#fff"/><path d="M929.039,351.971a90.009,90.009,0,0,0-3.654,9.449c-1.164,3.324-2.137,6.246-2.137,6.246s-2.271,14.784-3.431,17.457-.531,13.094-.531,13.094l-4.323,25.737s-1.958,13.272-4.983,21.2c-2.984,7.8-6.308,11.461-6.411,11.577,1.338-1.811,8.632-37.474,8.632-37.474l2.409-44.978s.352-4.274.709-7.928,7.584-8.641,7.584-8.641l6.968-9.908C930.574,348.737,930.105,350.37,929.039,351.971Z" transform="translate(-521.76 -218.793)" fill="#fff"/><path d="M899.859,474.471s-10.261-.446-15.23-6.415,11.487-2.382,11.487-2.382l4.278.981Z" transform="translate(-510.751 -283.489)" fill="#ffb0b1"/><path d="M980.676,482.871a13,13,0,0,0-.259,5.973c-11.193.794-23.167-2.23-23.167-2.23-2.23,2.052-8.106,5.077-8.106,5.077l-3.2-39.7c-2.048-5.353-2.851-33.4-2.851-33.4s.183-1.468.446-3.667a.426.426,0,0,1,.022-.165c.8-6.143,2.382-17.675,3.159-19.232,1.071-2.141-3.292-7.838-3.292-7.838l1.985-16.93.241-2.043c4.185-1.869,7.392-7.838,7.392-7.838l2.463-4.314h0c2.677-1.718,2.815,15.114,2.815,15.114l-2.677,39.745,8.869-2.449S982.188,477.795,980.676,482.871Z" transform="translate(-543.649 -223.575)" opacity="0.1"/><path d="M992.828,472.414c-12.2,6.058-34.378.446-34.378.446-2.231,2.052-8.106,5.077-8.106,5.077l-3.208-39.7c-2.043-5.353-2.846-33.4-2.846-33.4s2.578-20.927,3.649-23.064a3.437,3.437,0,0,0-.21-2.552,32.288,32.288,0,0,1-1.954-14.94l.857-7.276.236-2.039c4.189-1.874,7.4-7.843,7.4-7.843l2.231-3.908,4.1-7.2,1.945-3.408.33.3,2.521,2.284,2.677,2.231c3.493,2.944,9.529,8.128,12.643,11.3,2.739,2.793,3.6,13.656,3.854,21.833.165,5.385.067,9.6.067,9.6-2.762,4.546,4.461,41.043,4.461,41.043C990.781,428.248,992.828,472.414,992.828,472.414Z" transform="translate(-544.314 -210.374)" fill="#fff"/><path d="M953.977,364.159s-8.374,15.94-7.4,22,3.738,12.915,2.4,14.517a4.929,4.929,0,0,1-3.921,1.958c-1.339.089-4.907,2.583-4.907,2.851s-3.3.268-6.245,1.517a38.891,38.891,0,0,1-7.3,1.959s-8.476-.268-9.266.535-1.6,5.608.089,9.44,3.569,6.692,4.987,7.214,10.421-2.494,17.724-3.207,15.23-6.5,15.23-6.5,8.731-3.123,10.261-8.374-1.869-34.11-1.869-34.11S961.191,360.505,953.977,364.159Z" transform="translate(-528.884 -227.505)" opacity="0.03"/><path d="M951.593,361.16s-8.374,15.944-7.392,22,3.738,12.915,2.4,14.521a4.907,4.907,0,0,1-3.917,1.958c-1.338.089-4.907,2.583-4.907,2.851s-3.3.268-6.246,1.512a39.265,39.265,0,0,1-7.3,1.959s-8.476-.268-9.261.535-1.606,5.612.089,9.44,3.569,6.692,4.988,7.214,10.421-2.494,17.724-3.2,15.231-6.5,15.231-6.5,8.726-3.123,10.238-8.369-1.869-34.115-1.869-34.115S958.807,357.511,951.593,361.16Z" transform="translate(-527.571 -225.845)" opacity="0.03"/><path d="M953.4,362.367s-8.374,15.944-7.392,22,3.739,12.915,2.4,14.517a4.906,4.906,0,0,1-3.921,1.963c-1.339.089-4.908,2.583-4.908,2.846s-3.292.268-6.245,1.517a38.986,38.986,0,0,1-7.3,1.959s-8.476-.268-9.266.535-1.6,5.612.09,9.44,3.569,6.692,4.987,7.214,10.421-2.494,17.724-3.208,15.231-6.5,15.231-6.5,8.731-3.123,10.261-8.374-1.847-34.11-1.847-34.11S960.608,358.735,953.4,362.367Z" transform="translate(-528.568 -226.516)" fill="#fff"/><path d="M993.562,458.506s-6.692-1.338-4.363.892,2.315,4.185,5.166,4.1S993.562,458.506,993.562,458.506Z" transform="translate(-568.916 -279.89)" opacity="0.1"/><path d="M1023.959,566.58s-3.025,2.048,2.761,6.768S1023.959,566.58,1023.959,566.58Z" transform="translate(-588.003 -339.971)" opacity="0.1"/><path d="M1011.839,604.31c0,.268-1.071,9.815,2.935,12.2S1011.839,604.31,1011.839,604.31Z" transform="translate(-581.656 -360.869)" opacity="0.1"/><path d="M859.98,436.59c-3.23.112-10.207,1.1-6.589,7.847,3.2,5.974,8.575,1.981,11.6-1.048A11.4,11.4,0,0,0,859.98,436.59Z" transform="translate(-493.404 -267.972)" fill="#ffb0b1"/><path d="M881.39,451Z" transform="translate(-509.474 -275.954)" fill="#ffb0b1"/><path d="M880.74,451.538l.134-.138Z" transform="translate(-509.115 -276.175)" fill="#ffb0b1"/><path d="M970.981,338.013c-3.426,2.342-6.3,4.318-6.861,4.729-1.535,1.138-4.461,7.816-6.348,11.224-1.5,2.744-6.388,3.448-8.231,3.622l.236-2.039c4.189-1.874,7.4-7.843,7.4-7.843l8.28-14.517,2.851,2.592Z" transform="translate(-547.222 -210.701)" opacity="0.1"/><path d="M970.981,337.413c-3.426,2.342-6.3,4.318-6.861,4.733-1.535,1.133-4.461,7.811-6.348,11.22-1.5,2.744-6.388,3.449-8.231,3.623l.236-2.039c4.189-1.874,7.4-7.843,7.4-7.843l8.28-14.517,2.851,2.583S969.375,336.056,970.981,337.413Z" transform="translate(-547.222 -210.369)" fill="#dce7ff"/><path d="M949.962,301.494a13.232,13.232,0,1,1-11.249-13.08A13.21,13.21,0,0,1,949.962,301.494Z" transform="translate(-532.796 -185.817)" fill="#ffb0b1"/><path d="M974.246,345.993a11.762,11.762,0,0,1-4.269-4.586c-.745-1.472-1.24-3.172-2.512-4.216-1.146-.937-2.677-1.164-4.1-1.584-4.693-1.387-8.628-5.67-8.775-10.56-.071-2.3.647-4.6.321-6.879a7.622,7.622,0,0,0-1.49-3.547,12.229,12.229,0,0,0-1.289-1.387c-.625-.589-1.28-1.16-1.851-1.785a6.923,6.923,0,0,1-.937-1.271,6.11,6.11,0,0,1-.513-1.182c-.892-2.73-.08-5.969-1.062-8.731l-.053-.152a2.84,2.84,0,0,0-2.172-2.039c-1.048-.076-1.945.794-2.945,1.182-2.092.812-4.35-.571-6.094-1.981s-3.712-3.02-5.929-2.708c-1.468.21-2.628,1.209-3.979,1.727a5.576,5.576,0,0,1-.941.272,13.227,13.227,0,0,1,25.5,4.93,13.091,13.091,0,0,1-.29,2.761c.022.062.045.12.071.183.517,1.338,1.1,2.712,1.615,3.9l2.521,2.284,2.677,2.231c3.493,2.944,9.529,8.128,12.643,11.3C973.131,326.957,973.987,337.816,974.246,345.993Z" transform="translate(-533.989 -185.816)" opacity="0.1"/><path d="M922.864,275.539c.638-1.3.955-2.753,1.718-3.984a9.493,9.493,0,0,1,5.081-3.618c5.242-1.807,16.319-4.43,19.629,0a9.66,9.66,0,0,0,2.092,2.5,15.545,15.545,0,0,0,2.271,1.022,8.677,8.677,0,0,1,4.176,5.353c.718,2.2.933,4.568,1.459,6.839a50.312,50.312,0,0,0,3.034,8.418c1.388,3.239,2.86,6.6,5.536,8.887,3.654,3.123,4.461,7.544,7.852,10.97,4.015,4.069,3.886,10.783,1.816,16.114a4.425,4.425,0,0,0-.473,2.177,4.269,4.269,0,0,0,1.182,2.017l2.195,2.476a12.342,12.342,0,0,1-13.486-6.219c-.745-1.472-1.24-3.167-2.516-4.216-1.142-.937-2.677-1.16-4.1-1.579-4.693-1.392-8.628-5.679-8.775-10.569-.071-2.3.647-4.6.321-6.87a7.584,7.584,0,0,0-1.495-3.569c-1.227-1.6-3.078-2.677-4.078-4.461-1.691-2.985-.406-6.861-1.624-10.064a2.847,2.847,0,0,0-2.173-2.039c-1.048-.076-1.945.794-2.949,1.182-2.088.812-4.345-.567-6.09-1.981s-3.712-3.02-5.933-2.7c-1.468.205-2.623,1.2-3.975,1.727-1,.384-3.025.727-3.9-.116C917.814,281.531,922.092,277.128,922.864,275.539Z" transform="translate(-530.418 -173.21)" fill="#591d4b"/><path d="M968.066,332.4c-.749-1.472-1.24-3.167-2.516-4.211-1.142-.937-2.677-1.164-4.1-1.584-4.689-1.387-8.623-5.675-8.775-10.564-.071-2.3.647-4.6.326-6.875a7.63,7.63,0,0,0-1.494-3.547c-1.231-1.6-3.083-2.677-4.078-4.461-1.691-2.98-.406-6.857-1.628-10.064a2.856,2.856,0,0,0-2.168-2.039c-1.044-.08-1.949.8-2.949,1.187-2.088.812-4.35-.571-6.089-1.981s-3.716-3.02-5.934-2.708c-1.468.21-2.628,1.209-3.975,1.726-1,.384-3.029.732-3.9-.111-1.838-1.785,2.44-6.179,3.208-7.758a42.746,42.746,0,0,1,1.722-3.984c.04-.067.085-.134.129-.2a7.079,7.079,0,0,0-1.468,1.668,43.381,43.381,0,0,0-1.718,3.984c-.772,1.579-5.05,5.987-3.207,7.758.892.848,2.9.5,3.9.116,1.338-.522,2.507-1.521,3.975-1.726,2.231-.317,4.193,1.294,5.933,2.7s4.015,2.793,6.094,1.981c1-.388,1.874-1.263,2.944-1.182a2.841,2.841,0,0,1,2.173,2.039c1.218,3.2-.067,7.08,1.624,10.064,1,1.753,2.851,2.851,4.078,4.461a7.585,7.585,0,0,1,1.495,3.569c.326,2.275-.393,4.573-.321,6.87.147,4.907,4.082,9.177,8.775,10.569,1.414.419,2.958.642,4.1,1.579,1.28,1.048,1.784,2.744,2.516,4.216a12.342,12.342,0,0,0,13.486,6.219l-1.035-1.169A12.476,12.476,0,0,1,968.066,332.4Z" transform="translate(-530.299 -178.598)" opacity="0.1"/><path d="M952.428,352.516a90.024,90.024,0,0,0-3.654,9.449c-1.307-.509-2.494-3.752-2.494-3.752l6.968-9.913C953.962,349.281,953.494,350.91,952.428,352.516Z" transform="translate(-545.416 -219.07)" opacity="0.1"/><path d="M953.028,351.921a90,90,0,0,0-3.654,9.449c-1.307-.5-2.494-3.752-2.494-3.752l6.969-9.908C954.563,348.687,954.094,350.32,953.028,351.921Z" transform="translate(-545.748 -218.743)" fill="#dce7ff"/><path d="M864.976,442.341l-3.863-12.183a1.137,1.137,0,0,1,.74-1.432h0a1.142,1.142,0,0,1,1.427.741l3.864,12.17-.384,2.547Z" transform="translate(-498.213 -263.587)" fill="#be8b87"/><path d="M861.707,429.109h0a1.142,1.142,0,0,1,1.432.741L867,442.019l-.29,1.909.281.294.384-2.547-3.886-12.17a1.142,1.142,0,0,0-1.427-.741h0a1.142,1.142,0,0,0-.593.446,1.557,1.557,0,0,1,.236-.1Z" transform="translate(-498.441 -263.609)" fill="#fff" opacity="0.1"/><path d="M822.6,399.827l2.168-.687-.317,2.088-.067.46-.633-.66Z" transform="translate(-455.837 -221.073)" fill="#efc8c4"/><path d="M872.42,461.818a.447.447,0,0,1,.138-.116.2.2,0,0,1,.21,0,.546.546,0,0,1,.076.12.384.384,0,0,0,.277.183l-.067.446Z" transform="translate(-504.506 -281.865)" fill="#727a9c"/><path d="M861.13,441.7s7.749-.045,5.925,3.252a6.97,6.97,0,0,1-4.675,3.694Z" transform="translate(-498.253 -270.803)" fill="#ffb0b1"/><path d="M626.533,110.05H626.2a38.158,38.158,0,0,0-31.857,17.439,38.158,38.158,0,0,0-31.857-17.439h-.335a37.92,37.92,0,0,0-37.559,37.9c0,12.407,5.434,30.01,16.029,44.5,20.187,27.6,53.722,51.75,53.722,51.75s33.535-24.144,53.717-51.75c10.6-14.485,16.029-32.089,16.029-44.5a37.92,37.92,0,0,0-37.554-37.9Zm-4.787,84.517a7.517,7.517,0,0,1-6.991-4.827H606.8a2.516,2.516,0,0,1-2.369-1.713l-2.445-7.365-7.736,27.03a2.5,2.5,0,0,1-2.4,1.807h-.156a2.472,2.472,0,0,1-2.32-2.07L581.4,159.48l-5.826,28.373a2.485,2.485,0,0,1-2.414,1.887H561.948a2.494,2.494,0,1,1,0-4.983H571.2l8.253-38.148a2.5,2.5,0,0,1,4.907.205l8.142,48.912,6.933-24.184a2.454,2.454,0,0,1,2.333-1.784h.049a2.489,2.489,0,0,1,2.364,1.713l4.421,13.3h6.058a7.477,7.477,0,1,1,7.1,9.815Z" transform="translate(-311.849 -87.108)" fill="#500101"/></g></svg>